<svg height="480pt" viewBox="-8 0 480 480" width="480pt" xmlns="http://www.w3.org/2000/svg"><path d="m336 24v63.441406l-56-35.441406v-28zm0 0" fill="#edeff1"/><path d="m272 0h73.335938v24h-73.335938zm0 0" fill="#6e83b7"/><path d="m200 40-176 112v248h352v-248zm0 0" fill="#edeff1"/><g fill="#d3d3d3"><path d="m376 400v-166.527344c-9.289062 3.3125-16 12.113282-16 22.527344v88c0 4.40625-3.585938 8-8 8h-3.503906c-11.03125 0-20.609375 7.472656-23.28125 18.175781l-4.925782 19.71875-2.761718 10.105469zm0 0"/><path d="m224 200h128v200h-128zm0 0"/><path d="m24 152v24l176-112 176 112v-24l-176-112zm0 0"/></g><path d="m200 1.335938-200 126.664062v40l200-126.664062 200 126.664062v-40zm0 0" fill="#6e83b7"/><path d="m232 120c0 17.671875-14.328125 32-32 32s-32-14.328125-32-32 14.328125-32 32-32 32 14.328125 32 32zm0 0" fill="#6e83b7"/><path d="m224 120c0 13.253906-10.746094 24-24 24s-24-10.746094-24-24 10.746094-24 24-24 24 10.746094 24 24zm0 0" fill="#80d6fb"/><path d="m232 208h112v192h-112zm0 0" fill="#6e83b7"/><path d="m344 400v-47.542969c-9.054688 1.71875-16.488281 8.503907-18.792969 17.71875l-4.925781 19.71875-2.753906 10.105469zm0 0" fill="#466089"/><path d="m256.664062 303.335938c0 4.417968-3.582031 8-8 8-4.417968 0-8-3.582032-8-8 0-4.417969 3.582032-8 8-8 4.417969 0 8 3.582031 8 8zm0 0" fill="#ffe352"/><path d="m48 200h144v112h-144zm0 0" fill="#6e83b7"/><path d="m56 208h128v96h-128zm0 0" fill="#80d6fb"/><path d="m184 252h-60v-44h-8v44h-60v8h60v44h8v-44h60zm0 0" fill="#6e83b7"/><path d="m442.105469 186.945312 5.894531-2.945312-5.894531-2.953125c-3.097657-1.550781-5.609375-4.054687-7.152344-7.152344l-2.953125-5.894531-2.953125 5.894531c-1.550781 3.097657-4.054687 5.609375-7.152344 7.152344l-5.894531 2.953125 5.894531 2.953125c3.097657 1.550781 5.609375 4.054687 7.152344 7.152344l2.953125 5.894531 2.953125-5.894531c1.542969-3.097657 4.054687-5.609375 7.152344-7.160157zm0 0" fill="#80d6fb"/><path d="m55.152344 44.425781 8.847656-4.425781-8.847656-4.425781c-4.648438-2.316407-8.410156-6.085938-10.738282-10.734375l-4.414062-8.839844-4.425781 8.847656c-2.316407 4.648438-6.085938 8.410156-10.734375 10.738282l-8.839844 4.414062 8.847656 4.425781c4.648438 2.316407 8.410156 6.085938 10.738282 10.734375l4.414062 8.839844 4.425781-8.847656c2.316407-4.640625 6.085938-8.410156 10.726563-10.726563zm0 0" fill="#80d6fb"/><path d="m405.046875 57.472656 2.953125-1.472656-2.953125-1.472656c-1.550781-.773438-2.800781-2.03125-3.574219-3.574219l-1.472656-2.953125-1.472656 2.953125c-.773438 1.550781-2.03125 2.800781-3.574219 3.574219l-2.953125 1.472656 2.953125 1.472656c1.550781.773438 2.800781 2.03125 3.574219 3.574219l1.472656 2.953125 1.472656-2.953125c.773438-1.542969 2.03125-2.800781 3.574219-3.574219zm0 0" fill="#80d6fb"/><path d="m464 480-24-88h-112l-24 88zm0 0" fill="#ffe352"/><path d="m376 392h16v32h-16zm0 0" fill="#ffb236"/><path d="m408 392h16v24h-16zm0 0" fill="#ffb236"/><path d="m344 392h16v24h-16zm0 0" fill="#ffb236"/><path d="m440 392-4.96875-19.878906c-1.785156-7.121094-8.183594-12.121094-15.527344-12.121094h-3.503906c-8.839844 0-16-7.160156-16-16v-87.144531c0-7.96875-5.449219-15.359375-13.3125-16.640625-10.023438-1.621094-18.6875 6.066406-18.6875 15.785156v88c0 8.839844-7.160156 16-16 16h-3.503906c-7.34375 0-13.742188 5-15.519532 12.121094l-4.976562 19.878906zm-56-144c4.414062 0 8 3.585938 8 8s-3.585938 8-8 8-8-3.585938-8-8 3.585938-8 8-8zm0 0" fill="#6e83b7"/></svg>